<svg width="96" height="99" viewBox="0 0 96 99" fill="none" xmlns="http://www.w3.org/2000/svg">
<path d="M7.95312 60.8906L7.98047 60.9531L8.04297 60.9805L18.3359 60.9648L18.6992 61.0078L19.2031 61.1328L19.6797 61.3516L20.0195 61.668L20.2305 62.0898L20.2969 62.6172L20.3398 67.4023L20.2266 67.8711L20.1328 68.0352L19.9883 68.1836L19.5508 68.4727L18.8867 68.7266L18.2812 68.8359L14.832 68.7578L12.9922 68.7109L11.3867 68.7266L6.16797 68.8398L2.21094 68.8086L1.73047 68.7617L1.3125 68.6523L0.957031 68.4844L0.65625 68.2539L0.476562 68.0469L0.328125 67.8047L0.214844 67.4922L0.132812 67.0742L0.0703125 65.918L0.0625 3.80859V3.73047L0.121094 1.62109L0.164062 1.27734L0.253906 0.972656L0.386719 0.710938L0.566406 0.488281L0.800781 0.300781L1.07422 0.164062L1.39844 0.0742188L1.76172 0.0351562L3.61328 0L5.44141 0.0117188L6.15625 0.0429688L6.66797 0.125L7.07812 0.273438L7.39453 0.488281L7.57812 0.683594L7.73047 0.929688L7.82422 1.17969L7.89453 1.50781L7.94922 2.40234L7.95312 60.8906Z" fill="black"/>
<path d="M12.7539 1.04688L12.8242 0.75L12.9609 0.511719L13.125 0.355469L13.3281 0.238281L13.5938 0.148438L13.8984 0.101562L15.6016 0.015625L18.0078 0.0078125L18.5469 0.03125L18.9688 0.09375L19.332 0.214844L19.6211 0.386719L19.8906 0.652344L20.1172 1.01172L20.2188 1.28125L20.2891 1.61719L20.3438 2.45703L20.3047 18.9609L20.2969 54.0078L20.2852 54.918L20.2383 55.3789L20.0273 55.8438L19.6914 56.1992L19.2227 56.4648L18.7578 56.625L18.2812 56.7227L17.7695 56.7578H17.3906L15.3398 56.7305L13.957 56.5898L13.4492 56.4297L13.0703 56.1523L12.9023 55.9258L12.7812 55.6523L12.7109 55.3359L12.6836 54.9805L12.668 52.1094L12.6562 19.4062L12.6953 2.57031L12.7539 1.04688Z" fill="black"/>
<path d="M37.2422 60.0938L37.3672 59.7148L37.4062 59.2344L37.3945 2.68359L37.3906 2.36328L37.418 1.47266L37.4844 1.14453L37.5859 0.890625L37.8047 0.566406L38.0586 0.335938L38.3398 0.179688L38.6992 0.078125L39.1445 0.0273438L39.8008 0.0117188H40.1094L41.9453 0.0078125L43.4688 0.046875L43.9727 0.132812L44.3906 0.355469L44.668 0.664062L44.8711 1.09766L44.9883 1.65625L45.0273 2.35547L45.0312 59.3008L44.9414 60.5273L44.6914 61.7305L44.2812 62.918L43.7305 64.0508L43.0391 65.1211L42.2188 66.0977L41.3086 66.957L40.3008 67.6914L39.1758 68.3242L38.043 68.8008L36.8984 69.125L35.7422 69.2969L34.5703 69.3125L33.3867 69.1758L32.1875 68.8828L30.9805 68.4375L29.9414 67.9062L28.9414 67.2227L28.0039 66.4141L27.1484 65.4961L26.4219 64.5078L25.8477 63.5L25.418 62.457L25.1641 61.4336L25.0195 60.168L24.9883 58.8125L25.0273 56.8398L25.0391 2.73828L25.0352 2.48438L25.0703 1.41406L25.1406 1.05859L25.25 0.824219L25.5391 0.460938L25.8164 0.238281L26.082 0.132812L26.4219 0.078125L28.6953 0L30.9453 0.046875L31.3281 0.0898438L31.6562 0.167969L31.9297 0.285156L32.1445 0.4375L32.4258 0.777344L32.6094 1.21875L32.6719 1.73047L32.6953 58.2773L32.707 59.0352L32.7461 59.4453L32.8125 59.7773L33.0938 60.4141L33.2812 60.6758L33.5 60.9023L34.0156 61.2266L34.6445 61.418L35.0273 61.457L35.3906 61.4453L35.7344 61.3828L36.0547 61.2656L36.4141 61.0664L36.7344 60.8008L37.0117 60.4766L37.2422 60.0938Z" fill="black"/>
<path d="M79.0156 43.2148L78.9492 43.332L79.0469 43.4297L80.125 43.9727L81.1758 44.5586L82.1953 45.1875L83.1836 45.8516L84.2695 46.6523L85.3125 47.5L86.3125 48.3945L87.2695 49.3281L88.1875 50.3125L89.0625 51.3398L89.8828 52.4062L90.6562 53.5078L91.3789 54.6406L92.0508 55.8125L92.668 57.0117L93.2305 58.2461L93.7344 59.4922L94.1836 60.7656L94.5742 62.0625L94.9062 63.3828L95.2383 65.0664L95.4336 66.457L95.5586 67.8594L95.6172 69.2734L95.6055 70.6992L95.5234 72.1367L95.3711 73.5859L95.1523 75.043L94.8633 76.5156L94.6094 77.5508L94.3008 78.6094L93.9336 79.6875L93.5078 80.793L92.7305 82.5508L91.8555 84.2305L90.8789 85.8398L89.8047 87.375L88.7891 88.6562L87.6953 89.8828L86.5273 91.0547L85.2852 92.168L83.7695 93.375L82.1953 94.4727L80.5664 95.4492L78.8867 96.3125L77.1289 97.0664L75.3164 97.707L73.4492 98.2266L71.5273 98.6289L69.875 98.8672L68.4336 98.9531L52.6836 98.9883L51.4922 98.9414L50.4492 98.8047L50.25 98.7344L50.0938 98.625L49.9609 98.4648L49.8672 98.25L49.8203 97.9297L49.6953 95.668L49.625 93.4102L49.6172 91.1602L49.668 88.9141L49.6836 86.0938L49.6055 81.2109L49.5547 76.7188V53.9961L49.582 53.6055L49.6562 53.2539L49.7852 52.9453L49.9648 52.6836L50.2617 52.4023L50.6406 52.1914L50.957 52.0898L51.3516 52.0156L52.375 51.9531L55.4492 51.957L55.9023 51.9961L56.3008 52.0977L56.6367 52.2578L56.9102 52.4805L57.125 52.7578L57.2773 53.0977L57.3672 53.4961L57.3984 53.9531L57.4102 91.1133L57.4844 91.2852L57.6602 91.3594L66.0781 91.3242H66.2148L68.4648 91.2773L70.0391 91.1133L71.6914 90.7656L73.2891 90.3125L74.8281 89.7383L76.3086 89.0547L77.3555 88.4883L78.3711 87.8594L79.3555 87.168L80.3125 86.418L81.168 85.668L81.9727 84.8867L82.7461 84.0547L83.4648 83.1914L84.1445 82.2891L84.7656 81.3594L85.3359 80.4023L85.8555 79.4219L86.3047 78.4492L86.7031 77.457L87.0547 76.4492L87.3516 75.4219L87.5977 74.3828L87.7891 73.332L87.9297 72.2656L88.0195 71.1953L88.0547 70.1211L88.0352 69.043L87.9648 67.9609L87.8398 66.875L87.6641 65.8086L87.4336 64.7422L87.1523 63.6758L86.8164 62.6172L86.418 61.5625L85.9648 60.5391L85.457 59.5508L84.8984 58.5938L84.25 57.6211L83.5664 56.6914L82.8516 55.8125L82.0977 54.9766L81.3008 54.1797L80.4727 53.4336L79.6094 52.7344L78.7148 52.082L77.543 51.332L76.3203 50.6562L75.0508 50.0586L73.7422 49.5469L72.3867 49.1094L70.9922 48.75L69.5625 48.4766L68.0977 48.2852L66.2344 48.1719L63.5859 48.1445L51.3945 48.1523L51 48.1211L50.6602 48.0391L50.3711 47.9062L50.1406 47.7227L50.0859 47.6562L49.8359 47.2773L49.6992 46.9492L49.6211 46.5977L49.582 46.1953L49.5938 45.7578L49.668 44.4141L49.6953 43.0195L49.6719 41.5664L49.5977 40.0664L49.6289 39.625L49.6641 39.1641L49.543 31.3516L49.5469 2.17578L49.582 1.65234L49.6875 1.19922L49.8633 0.820312L50.1055 0.515625L50.457 0.269531L50.8867 0.105469L51.5469 0.0585938L53.0234 0.0429688L65.1055 0.0117188L66.6602 0.0507812L68.1836 0.191406L69.6797 0.433594L71.1484 0.777344L72.9648 1.35938L74.1172 1.8125L75.2266 2.30859L76.3008 2.85156L77.332 3.4375L78.3203 4.06641L79.2734 4.73828L80.1875 5.45312L81.0547 6.21484L82.3711 7.51953L83.582 8.9375L84.6914 10.4688L85.6953 12.1133L85.9297 12.5352L86.375 13.4258L86.7852 14.3359L87.4844 16.2188L87.8281 17.375L88.1094 18.5391L88.332 19.707L88.4922 20.8828L88.6328 22.8164L88.6094 24.7656L88.4336 26.7305L88.0977 28.7148L87.6055 30.6992L86.9727 32.5938L86.1953 34.4102L85.2734 36.1406L84.3516 37.5781L83.3242 38.9531L82.1836 40.2656L80.9375 41.5117L79.0156 43.2148ZM62.2578 28.168L61.9297 28.543L61.582 28.8789L61.2109 29.1719L60.8164 29.4258L60.2852 29.6836L59.7188 29.875L59.1133 30.0039L58.4727 30.0664L57.6133 30.1758L57.4648 30.2695L57.4062 30.4336V40.1094L57.4531 40.25L57.5977 40.2969L65.3086 40.3047L66.8984 40.2344L67.6133 40.1406L68.3125 40.0039L68.9766 39.832L69.9961 39.5L70.9805 39.1289L71.918 38.707L72.8164 38.2422L73.6719 37.7344L74.4844 37.1797L75.2539 36.582L75.9844 35.9375L76.9648 34.9258L77.8555 33.8203L78.6602 32.6211L79.375 31.3281L79.918 30.1289L80.3516 28.9141L80.7305 27.4609L80.9727 25.9883L81.082 24.4688L81.0664 22.8711L80.9062 21.2031L80.5938 19.6094L80.1328 18.082L79.5195 16.6328L78.8789 15.457L78.1289 14.3281L77.2695 13.2578L76.3008 12.2383L75.3906 11.4141L74.4375 10.6719L73.4453 10.0039L72.4141 9.41797L71.6133 9.03125L70.793 8.6875L69.9492 8.39062L69.082 8.13672L68.1953 7.92578L67.2812 7.75781L66.3477 7.63672L65.3867 7.55859L61.8555 7.44922L57.5508 7.48047L57.4492 7.52734L57.4062 7.62891V20.7148L57.4258 20.832L57.4766 20.9141L57.6797 20.9648L58.3164 20.9375L58.9414 20.9922L59.5156 21.1055L60.0781 21.2852L60.6328 21.5273L61.1758 21.8359L61.5664 22.1094L61.9141 22.4102L62.2148 22.7422L62.4727 23.1016L62.7695 23.6875L62.9727 24.3438L63.0703 25.0625L63.0664 25.8398L62.9844 26.5195L62.8164 27.1328L62.5781 27.6797L62.2578 28.168Z" fill="black"/>
<path d="M62.6367 18.0312L62.2148 17.7695L62.1562 17.6602L62.1367 17.5352V11.9844L62.1758 11.8633L62.2969 11.8086L63.6094 11.7031L64.8359 11.6836L65.9805 11.75L67.0352 11.8984L68.0586 12.1328L69.0391 12.4375L69.9805 12.8164L70.8789 13.2734L71.8242 13.8594L72.7227 14.543L73.5703 15.3125L74.3633 16.1719L74.8047 16.7305L75.2109 17.3164L75.5859 17.9453L75.9219 18.5938L76.2188 19.2734L76.4727 19.9688L76.8516 21.4062L76.9805 22.1602L77.0664 22.918L77.1016 24.4453L76.9609 25.9609L76.8242 26.7109L76.6445 27.4453L76.3008 28.4766L75.8477 29.4805L75.2812 30.4531L74.6016 31.4023L73.8047 32.332L72.9492 33.1641L72.0234 33.9062L71.043 34.5469L70.1016 35.043L69.125 35.457L68.0898 35.7969L67.0234 36.043L65.9219 36.2109L64.793 36.2891L63.6445 36.2812L62.4766 36.1875L62.3242 36.1484L62.1875 36.0625L62.082 35.9453L62.0195 35.7969L61.8867 35.1289L61.8477 34.5938L61.8672 34.0508L61.9141 33.7539L61.9883 33.5664L62.2773 33.2617L63.6172 32.2734L64.3867 31.6289L65.0586 30.9336L65.6328 30.1875L66.1094 29.3906L66.5469 28.3711L66.8438 27.2852L67.0039 26.125L67.0195 24.8906L66.9492 24.0664L66.8008 23.2734L66.5781 22.5195L66.2773 21.8008L65.7266 20.8438L65.0625 19.9766L64.3398 19.2266L63.5547 18.5898L62.7109 18.0664L62.6367 18.0312Z" fill="black"/>
<path d="M75.4648 67.2695L74.8047 65.9648L74.3789 65.2344L73.9023 64.5586L73.3789 63.9375L72.8047 63.3711L72.0469 62.7578L71.2148 62.2305L70.3164 61.7773L69.3398 61.4062L68.8281 61.2578L68.2031 61.1289L67.5703 61.0547L66.918 61.0312L66.2656 61.0586L65.5859 61.1445L64.9023 61.2812L64.2031 61.4766L63.5117 61.7148L63.2422 61.7969L62.9883 61.8203L62.7812 61.7891L62.6094 61.6914L62.4727 61.5L62.4141 61.2031L62.3516 57.7734L62.3711 52.9531L62.418 52.5352L62.5508 52.2852L62.7852 52.1367L63.1484 52.0625L64.9531 51.9609L66.7188 51.9883L68.4141 52.1367L70.0469 52.4023L71.6133 52.793L73.0938 53.3008L74.5117 53.9375L75.8359 54.6836L77.1445 55.5859L78.3516 56.5703L79.4492 57.6406L80.4414 58.793L81.4414 60.1992L82.3008 61.7148L83.0273 63.3398L83.6172 65.0703L83.8594 66.1133L83.9648 67.1211L83.9023 67.3125L83.7227 67.4102L83.0938 67.4688L79.4219 67.5039L75.7734 67.4648L75.5938 67.4102L75.4648 67.2695Z" fill="black"/>
<path d="M71.8281 69.7188C71.8281 70.0547 71.7969 70.3828 71.7305 70.7109C71.6641 71.0391 71.5703 71.3555 71.4414 71.6641C71.3125 71.9727 71.1563 72.2656 70.9727 72.543C70.7852 72.8242 70.5742 73.0781 70.3398 73.3164C70.1016 73.5508 69.8438 73.7617 69.5664 73.9492C69.2891 74.1328 68.9961 74.2891 68.6875 74.418C68.3789 74.5469 68.0625 74.6406 67.7344 74.707C67.4062 74.7734 67.0742 74.8047 66.7422 74.8047C66.4062 74.8047 66.0781 74.7734 65.75 74.707C65.4219 74.6406 65.1055 74.5469 64.7969 74.418C64.4883 74.2891 64.1953 74.1328 63.918 73.9492C63.6367 73.7617 63.3828 73.5508 63.1445 73.3164C62.9102 73.0781 62.6992 72.8242 62.5117 72.543C62.3281 72.2656 62.1719 71.9727 62.043 71.6641C61.9141 71.3555 61.8203 71.0391 61.7539 70.7109C61.6875 70.3828 61.6562 70.0547 61.6562 69.7188C61.6562 69.3867 61.6875 69.0547 61.7539 68.7266C61.8203 68.3984 61.9141 68.082 62.043 67.7734C62.1719 67.4648 62.3281 67.1719 62.5117 66.8945C62.6992 66.6172 62.9102 66.3594 63.1445 66.1211C63.3828 65.8867 63.6367 65.6758 63.918 65.4883C64.1953 65.3047 64.4883 65.1484 64.7969 65.0195C65.1055 64.8906 65.4219 64.7969 65.75 64.7305C66.0781 64.6641 66.4062 64.6328 66.7422 64.6328C67.0742 64.6328 67.4062 64.6641 67.7344 64.7305C68.0625 64.7969 68.3789 64.8906 68.6875 65.0195C68.9961 65.1484 69.2891 65.3047 69.5664 65.4883C69.8438 65.6758 70.1016 65.8867 70.3398 66.1211C70.5742 66.3594 70.7852 66.6172 70.9727 66.8945C71.1563 67.1719 71.3125 67.4648 71.4414 67.7734C71.5703 68.082 71.6641 68.3984 71.7305 68.7266C71.7969 69.0547 71.8281 69.3867 71.8281 69.7188Z" fill="black"/>
<path d="M72.7773 76.2266L73.5156 75.5234L74.1719 74.6602L74.7656 73.6172L75.2969 72.3789L75.4648 72.1562L75.7188 72.0547L76.6328 71.9961L83.8516 71.9648L83.9844 72.0078L84.0234 72.1445L83.8711 73.4805L83.6172 74.7695L83.2578 76.0117L82.793 77.207L82.4688 77.8984L81.7656 79.168L80.9805 80.3555L80.1133 81.457L79.1641 82.4805L77.8984 83.6133L76.5078 84.6211L74.9922 85.5117L73.3633 86.2734L71.7969 86.8281L70.0781 87.2617L69.3867 87.375L68.5898 87.457L66.6797 87.5195L62.7539 87.4883L62.5781 87.4609L62.4531 87.3828L62.3789 87.2539L62.3555 87.0781V77.8281L62.3789 77.7227L62.4414 77.6367L62.5391 77.582L62.6445 77.5742L62.6797 77.5781L64.0664 77.9336L65.1406 78.1641L66.1914 78.2969L67.2148 78.3242L68.2109 78.2422L69.1836 78.0547L70.1211 77.7578L71.0352 77.3555L71.918 76.8438L72.7773 76.2266Z" fill="black"/>
<path d="M11.9531 81.8086L12 81.6797L11.8672 81.6367L6.63672 81.6641L1.8125 81.5703L1.31641 81.5117L0.898438 81.3789L0.550781 81.1602L0.316406 80.8906L0.1875 80.6094L0.132812 80.2695L0.0351562 77.1328L0.046875 76.043L0.0898438 75.2695L0.230469 74.6992L0.355469 74.4688L0.511719 74.2734L0.800781 74.0586L1.15625 73.9141L1.85156 73.8086L2.89844 73.7734L41.2734 73.7773L41.9805 73.793L42.543 73.8594L42.9609 73.9727L43.2422 74.1367L43.5703 74.5078L43.7617 74.918L43.8203 75.3164L43.7852 77.125L43.6289 78.5742L43.4609 79.0195L43.1172 79.4609L33.8594 88.6953L31.3438 90.9688L31.3086 91.0312L31.375 91.0664L31.9883 91.1211L32.7891 91.1328L37.4219 91.1016L41.2734 91.125L42.0898 91.1602L42.6953 91.2617L43.1719 91.4414L43.5547 91.7109L43.793 91.9922L43.9844 92.3516L44.0781 92.7969L44.082 93.4922L43.9219 97.2891L43.793 98.1328L43.7031 98.3867L43.5625 98.5859L43.3438 98.7422L43.0586 98.832L42.1289 98.9414L40.9375 98.9766L1.53125 98.9805L1.23438 98.9492L0.972656 98.8594L0.652344 98.6211L0.386719 98.25L0.199219 97.7734L0.0859375 97.1953L0 95.7617L0.0507812 93.9961L0.117188 93.6133L0.25 93.2734L0.402344 93.0352L1.08203 92.2305L2.66016 90.6641L4.76172 88.6602L7.48438 86.043L9.37109 84.2305L11.5469 82.2383L11.9531 81.8086ZM12.2188 91.1445L12.1602 91.2383L12.2656 91.2773L12.7383 91.2109L13.2461 91.1367H20.6836L20.7891 91.1172L20.8711 91.0664L25.168 87.082L29.4648 82.9961L30.0938 82.4805L30.7891 81.8984L30.875 81.7383L30.7031 81.6797L26.3906 81.6172L22.625 81.6758L22.4492 81.7148L22.3047 81.8164L20.5586 83.4414L19.0742 84.8008L15.8164 87.9023L12.2188 91.1445Z" fill="black"/>
</svg>
